<?xml version="1.0" standalone="no"?>
<!DOCTYPE svg PUBLIC "-//W3C//DTD SVG 20010904//EN"
 "http://www.w3.org/TR/2001/REC-SVG-20010904/DTD/svg10.dtd">
<svg version="1.0" xmlns="http://www.w3.org/2000/svg"
 width="700.000000pt" height="176.000000pt" viewBox="0 0 700.000000 176.000000"
 preserveAspectRatio="xMidYMid meet">

<g transform="translate(0.000000,176.000000) scale(0.100000,-0.100000)"
fill="#000000" stroke="none">
<path d="M1660 1100 l0 -270 40 0 40 0 0 74 0 74 173 4 c192 3 220 12 264 78
33 47 33 175 1 231 -40 71 -72 79 -311 79 l-207 0 0 -270z m440 170 c42 -42
40 -149 -5 -187 -25 -22 -34 -23 -191 -23 l-164 0 0 115 0 115 170 0 c156 0
172 -2 190 -20z"/>
<path d="M2240 1313 l1 -58 114 -125 115 -125 0 -87 0 -88 40 0 40 0 0 84 0
84 115 126 115 126 0 60 0 60 -35 0 c-34 0 -35 -1 -35 -40 0 -37 -8 -49 -96
-145 -53 -58 -100 -104 -104 -103 -4 2 -49 48 -99 103 -84 93 -91 103 -91 143
l0 42 -40 0 -40 0 0 -57z"/>
<path d="M2914 1350 c-72 -36 -84 -72 -84 -250 0 -180 12 -215 86 -251 39 -18
58 -20 198 -17 168 3 182 8 230 72 19 25 21 41 21 195 l0 168 -29 37 c-43 58
-74 66 -238 66 -123 0 -149 -3 -184 -20z m355 -86 c19 -24 21 -40 21 -164 0
-124 -2 -140 -21 -164 -20 -26 -21 -26 -168 -26 -199 0 -191 -8 -191 190 0
198 -8 190 191 190 147 0 148 0 168 -26z"/>
<path d="M3440 1100 l0 -271 219 3 c204 3 222 5 247 24 64 47 69 62 72 227 3
142 1 155 -20 196 -43 84 -49 86 -299 89 l-219 3 0 -271z m439 164 c19 -24 21
-40 21 -167 0 -195 9 -187 -212 -187 l-168 0 0 190 0 190 169 0 170 0 20 -26z"/>
<path d="M4050 1100 l0 -270 40 0 40 0 0 270 0 270 -40 0 -40 0 0 -270z"/>
<path d="M4200 1100 l0 -271 219 3 c241 3 245 4 295 72 19 25 21 41 21 196 0
155 -2 171 -21 196 -50 68 -54 69 -295 72 l-219 3 0 -271z m437 168 c22 -21
23 -28 23 -167 0 -200 10 -191 -212 -191 l-168 0 0 190 0 190 167 0 c157 0
168 -1 190 -22z"/>
<path d="M4810 1100 l0 -270 270 0 270 0 0 40 0 40 -230 0 -230 0 0 75 0 75
190 0 190 0 0 40 0 40 -190 0 -190 0 0 75 0 75 230 0 230 0 0 40 0 40 -270 0
-270 0 0 -270z"/>
<path d="M2220 545 l0 -295 295 0 295 0 0 295 0 295 -110 0 -110 0 0 -34 c0
-32 -2 -34 -37 -38 -21 -3 -55 -3 -75 0 -35 4 -38 7 -38 38 l0 34 -110 0 -110
0 0 -295z m178 -32 c6 -10 13 -38 18 -63 l8 -45 12 54 c7 29 17 58 23 64 18
18 39 -1 45 -40 11 -63 23 -71 31 -22 8 48 20 69 41 69 19 0 18 -20 -8 -128
-21 -89 -23 -93 -47 -90 -22 3 -27 10 -37 58 l-10 55 -14 -58 c-12 -54 -15
-58 -39 -55 -24 3 -27 10 -47 103 -12 55 -20 103 -17 108 8 13 32 7 41 -10z
m300 5 c8 -11 62 -186 62 -202 0 -3 -11 -6 -24 -6 -15 0 -26 7 -29 20 -4 15
-14 20 -37 20 -23 0 -33 -5 -37 -20 -4 -13 -14 -20 -30 -20 -18 0 -23 4 -20
18 3 9 13 51 22 92 10 41 22 83 27 93 10 20 51 23 66 5z"/>
<path d="M2656 437 c-9 -33 -8 -37 13 -37 14 0 17 6 13 25 -6 34 -18 40 -26
12z"/>
</g>
</svg>
